Coordinates
version=1
nRows=60
nColumns=12
inDegrees=yes

Units are S.I. units (second, meters, Newtons, ...)
Angles are in degrees

endheader
time	SC_y	SC_z	SC_x	AC_y	AC_z	AC_x	GH_y	GH_z	GH_yy	EL_x	PS_y
       0.0               -47.7          8.144          72.85          47.12         -14.41         -7.219         -26.03          84.36          25.68          116.9          124.3
   0.02687               -47.7          8.147          72.85          47.12          -14.4          -7.22         -26.01          84.35          25.65          116.9          124.4
   0.05374              -47.71           8.15          72.85          47.11          -14.4         -7.222         -25.99          84.34          25.62          116.9          124.4
   0.08062              -47.71          8.153          72.85          47.11          -14.4         -7.224         -25.97          84.33          25.58          116.8          124.4
    0.1075              -47.71          8.156          72.85          47.11          -14.4         -7.226         -25.95          84.32          25.55          116.8          124.4
    0.1344              -47.71           8.16          72.85          47.11          -14.4         -7.228         -25.93          84.31          25.51          116.8          124.4
    0.1612              -47.71          8.163          72.85           47.1          -14.4          -7.23          -25.9           84.3          25.47          116.8          124.4
    0.1881              -47.71          8.167          72.86           47.1          -14.4         -7.232         -25.87          84.29          25.43          116.8          124.4
     0.215              -47.72          8.172          72.86           47.1          -14.4         -7.235         -25.85          84.28          25.38          116.8          124.4
    0.2419              -47.72          8.176          72.86          47.09          -14.4         -7.237         -25.81          84.26          25.33          116.8          124.4
    0.2687              -47.72          8.181          72.86          47.09         -14.39          -7.24         -25.78          84.25          25.28          116.8          124.4
    0.2956              -47.72          8.187          72.86          47.08         -14.39         -7.243         -25.74          84.23          25.22          116.7          124.4
    0.3225              -47.73          8.192          72.87          47.08         -14.39         -7.246          -25.7          84.22          25.16          116.7          124.4
    0.3493              -47.73          8.199          72.87          47.07         -14.39          -7.25         -25.66           84.2          25.09          116.7          124.4
    0.3762              -47.73          8.205          72.87          47.07         -14.39         -7.254         -25.62          84.18          25.02          116.7          124.5
    0.4031              -47.74          8.213          72.88          47.06         -14.38         -7.258         -25.57          84.16          24.94          116.7          124.5
      0.43              -47.74          8.221          72.88          47.05         -14.38         -7.263         -25.51          84.13          24.85          116.6          124.5
    0.4568              -47.75          8.229          72.88          47.05         -14.38         -7.268         -25.45          84.11          24.76          116.6          124.5
    0.4837              -47.75          8.239          72.89          47.04         -14.37         -7.273         -25.39          84.08          24.66          116.6          124.5
    0.5106              -47.76          8.249          72.89          47.03         -14.37         -7.279         -25.32          84.05          24.55          116.6          124.5
    0.5374              -47.76          8.261          72.89          47.02         -14.37         -7.286         -25.24          84.02          24.43          116.5          124.6
    0.5643              -47.77          8.273           72.9          47.01         -14.36         -7.293         -25.16          83.98          24.29          116.5          124.6
    0.5912              -47.77          8.287          72.91           47.0         -14.36         -7.301         -25.06          83.94          24.14          116.4          124.6
    0.6181              -47.78          8.303          72.91          46.98         -14.35         -7.309         -24.96           83.9          23.98          116.4          124.6
    0.6449              -47.79           8.32          72.92          46.97         -14.35         -7.319         -24.85          83.85           23.8          116.3          124.7
    0.6718               -47.8          8.339          72.93          46.95         -14.34          -7.33         -24.72          83.79          23.59          116.3          124.7
    0.6987              -47.81           8.36          72.94          46.94         -14.33         -7.342         -24.57          83.73          23.36          116.2          124.8
    0.7256              -47.82          8.384          72.95          46.92         -14.33         -7.356         -24.41          83.66          23.11          116.1          124.8
    0.7524              -47.84          8.411          72.96          46.89         -14.32         -7.372         -24.23          83.58          22.82          116.1          124.8
    0.7793              -47.85          8.442          72.97          46.87         -14.31         -7.389         -24.02          83.49          22.49          116.0          124.9
    0.8062              -47.87          8.477          72.98          46.84          -14.3         -7.409         -23.78          83.39          22.11          115.9          125.0
     0.833              -47.89          8.518           73.0           46.8         -14.28         -7.433         -23.51          83.27          21.68          115.7          125.0
    0.8599              -47.91          8.564          73.02          46.76         -14.27         -7.459         -23.19          83.14          21.18          115.6          125.1
    0.8868              -47.94          8.618          73.04          46.72         -14.25          -7.49         -22.83          82.98           20.6          115.4          125.2
    0.9137              -47.97          8.682          73.07          46.66         -14.23         -7.526          -22.4           82.8          19.92          115.3          125.4
    0.9405              -48.01          8.756           73.1           46.6          -14.2         -7.569          -21.9          82.58          19.12          115.0          125.5
    0.9674              -48.05          8.845          73.14          46.52         -14.17          -7.62          -21.3          82.32          18.17          114.8          125.7
    0.9943               -48.1          8.951          73.18          46.43         -14.14         -7.681         -20.58          82.01          17.04          114.4          125.9
     1.021              -48.17           9.08          73.23          46.32          -14.1         -7.754         -19.71          81.64          15.66          114.1          126.1
     1.048              -48.25          9.237           73.3          46.19         -14.05         -7.844         -18.65          81.18          13.98          113.6          126.4
     1.075              -48.34          9.431          73.38          46.02         -13.98         -7.955         -17.34          80.62           11.9          113.0          126.8
     1.102              -48.46          9.673          73.48          45.82          -13.9         -8.094          -15.7          79.91          9.311          112.3          127.2
     1.129              -48.61          9.978           73.6          45.56          -13.8         -8.268         -13.64          79.03          6.049          111.4          127.8
     1.156               -48.8          10.37          73.76          45.23         -13.67          -8.49         -11.03           77.9          1.903          110.2          128.5
     1.182              -49.05          10.86          73.96          44.81         -13.51         -8.774         -7.677          76.46         -3.405          108.7          129.4
     1.209              -49.37           11.5          74.23          44.27          -13.3         -9.138         -3.378          74.61         -10.22          106.8          130.6
     1.236              -49.77          12.31          74.56          43.57         -13.03         -9.603          2.113          72.25         -18.91          104.4          132.2
     1.263              -50.28          13.33          74.98          42.71          -12.7         -10.19          9.018          69.28         -29.85          101.3          134.1
      1.29              -50.89          14.58          75.49          41.65         -12.29          -10.9          17.43          65.66         -43.18          97.59          136.4
     1.317              -51.61          16.02          76.09          40.42         -11.81         -11.73          27.18          61.46         -58.64          93.26          139.1
     1.344              -52.39          17.59          76.73          39.09          -11.3         -12.62          37.74          56.92         -75.37          88.57          142.1
      1.37              -53.16          19.15          77.37          37.76         -10.78         -13.52           48.3          52.38          -92.1          83.89          145.0
     1.397              -53.88          20.59          77.97          36.53         -10.31         -14.34          58.06          48.18         -107.5          79.56          147.7
     1.424              -54.49          21.84          78.48          35.47         -9.897         -15.06          66.47          44.56         -120.9          75.83          150.0
     1.451               -55.0          22.86           78.9           34.6          -9.56         -15.64          73.38          41.59         -131.8          72.77          152.0
     1.478               -55.4          23.67          79.23          33.91         -9.292         -16.11          78.87          39.23         -140.5          70.33          153.5
     1.505              -55.72          24.31          79.49          33.37         -9.083         -16.47          83.17          37.38         -147.3          68.42          154.7
     1.532              -55.97          24.81           79.7          32.94         -8.919         -16.75          86.52          35.94         -152.6          66.94          155.6
     1.559              -56.16          25.19          79.86          32.62         -8.792         -16.98          89.13          34.81         -156.8          65.78          156.3
     1.585              -56.31           25.5          79.98          32.36         -8.692         -17.15          91.19          33.93         -160.0          64.86          156.9
